<?xml version="1.0" encoding="UTF-8"?>
<svg id="Layer_1" data-name="Layer 1" xmlns="http://www.w3.org/2000/svg" viewBox="0 0 1199.7 515.9">
  <defs>
    <style>
      .cls-1 {
        fill: #0b73b8;
      }

      .cls-2 {
        fill: #8ac441;
      }
    </style>
  </defs>
  <g>
    <g>
      <path class="cls-1" d="M561.84,145.31c0,7.94-1.96,14.04-5.89,18.3-3.93,4.25-9.63,6.38-17.1,6.38s-13.18-2.13-17.1-6.38c-3.93-4.25-5.89-10.35-5.89-18.3v-51.03c0-7.94,1.96-14.04,5.89-18.3,3.93-4.25,9.63-6.38,17.1-6.38s13.18,2.13,17.1,6.38c3.93,4.25,5.89,10.35,5.89,18.3v9.53h-14.58v-10.51c0-6.45-2.66-9.67-7.99-9.67s-7.99,3.23-7.99,9.67v52.99c0,6.36,2.66,9.53,7.99,9.53s7.99-3.17,7.99-9.53v-14.02h14.58v13.04Z"/>
      <path class="cls-1" d="M586.65,70.72v98.14h-15.42V70.72h15.42Z"/>
      <path class="cls-1" d="M628.99,164.37c-.19-1.4-.28-3.93-.28-7.57v-15.42c0-4.49-.8-7.69-2.38-9.6-1.59-1.91-4.16-2.87-7.71-2.87h-5.33v39.96h-15.42V70.72h23.27c7.94,0,13.74,1.85,17.38,5.54,3.65,3.69,5.47,9.37,5.47,17.03v7.71c0,10.09-3.36,16.73-10.09,19.91,3.65,1.5,6.26,4,7.85,7.5,1.59,3.5,2.38,7.97,2.38,13.39v15.14c0,2.8,.09,5.07,.28,6.8,.19,1.73,.65,3.44,1.4,5.12h-15.7c-.56-1.59-.94-3.08-1.12-4.49Zm-15.7-49.49h6.03c3.08,0,5.4-.79,6.94-2.38,1.54-1.59,2.31-4.25,2.31-7.99v-9.67c0-3.55-.63-6.12-1.89-7.71-1.26-1.59-3.25-2.38-5.96-2.38h-7.43v30.14Z"/>
      <path class="cls-1" d="M698.94,145.31c0,7.94-1.96,14.04-5.89,18.3-3.93,4.25-9.63,6.38-17.1,6.38s-13.18-2.13-17.1-6.38c-3.93-4.25-5.89-10.35-5.89-18.3v-51.03c0-7.94,1.96-14.04,5.89-18.3,3.93-4.25,9.63-6.38,17.1-6.38s13.18,2.13,17.1,6.38c3.93,4.25,5.89,10.35,5.89,18.3v9.53h-14.58v-10.51c0-6.45-2.66-9.67-7.99-9.67s-7.99,3.23-7.99,9.67v52.99c0,6.36,2.66,9.53,7.99,9.53s7.99-3.17,7.99-9.53v-14.02h14.58v13.04Z"/>
      <path class="cls-1" d="M723.05,146.43c0,6.36,2.66,9.53,7.99,9.53s7.99-3.18,7.99-9.53V70.72h14.58v74.72c0,7.94-1.96,14.04-5.89,18.3-3.93,4.25-9.63,6.38-17.1,6.38s-13.18-2.13-17.1-6.38c-3.93-4.25-5.89-10.35-5.89-18.3V70.72h15.42v75.7Z"/>
      <path class="cls-1" d="M807.31,70.72h21.45v98.14h-14.58V98.48l-10.65,70.38h-14.58l-11.5-69.4v69.4h-13.46V70.72h21.45l11.36,69.68,10.51-69.68Z"/>
      <path class="cls-1" d="M884.69,145.31c0,7.94-1.96,14.04-5.89,18.3-3.93,4.25-9.63,6.38-17.1,6.38s-13.18-2.13-17.1-6.38c-3.93-4.25-5.89-10.35-5.89-18.3v-51.03c0-7.94,1.96-14.04,5.89-18.3,3.93-4.25,9.63-6.38,17.1-6.38s13.18,2.13,17.1,6.38c3.93,4.25,5.89,10.35,5.89,18.3v9.53h-14.58v-10.51c0-6.45-2.66-9.67-7.99-9.67s-7.99,3.23-7.99,9.67v52.99c0,6.36,2.66,9.53,7.99,9.53s7.99-3.17,7.99-9.53v-14.02h14.58v13.04Z"/>
      <path class="cls-1" d="M909.51,70.72v98.14h-15.42V70.72h15.42Z"/>
      <path class="cls-1" d="M924.51,75.98c3.83-4.25,9.48-6.38,16.96-6.38s13.13,2.13,16.96,6.38c3.83,4.25,5.75,10.35,5.75,18.3v3.08h-14.58v-4.07c0-3.36-.65-5.82-1.96-7.36-1.31-1.54-3.22-2.31-5.75-2.31s-4.44,.77-5.75,2.31c-1.31,1.54-1.96,4-1.96,7.36,0,4.11,1.1,7.71,3.3,10.79,2.19,3.08,5.49,6.59,9.88,10.51,3.65,3.36,6.59,6.33,8.83,8.9,2.24,2.57,4.16,5.68,5.75,9.32,1.59,3.65,2.38,7.8,2.38,12.48,0,7.94-1.96,14.04-5.89,18.3-3.93,4.25-9.63,6.38-17.1,6.38s-13.18-2.13-17.1-6.38-5.89-10.35-5.89-18.3v-6.03h14.58v7.01c0,6.36,2.66,9.53,7.99,9.53s7.99-3.17,7.99-9.53c0-4.11-1.1-7.71-3.3-10.8-2.2-3.08-5.49-6.59-9.88-10.51-3.65-3.36-6.59-6.33-8.83-8.9-2.24-2.57-4.16-5.68-5.75-9.32-1.59-3.65-2.38-7.8-2.38-12.48,0-7.94,1.91-14.04,5.75-18.3Z"/>
      <path class="cls-1" d="M988.57,70.72v98.14h-15.42V70.72h15.42Z"/>
      <path class="cls-1" d="M1004.55,76.05c4.02-4.3,9.81-6.45,17.38-6.45s13.36,2.15,17.38,6.45c4.02,4.3,6.03,10.37,6.03,18.23v51.03c0,7.85-2.01,13.93-6.03,18.22-4.02,4.3-9.81,6.45-17.38,6.45s-13.37-2.15-17.38-6.45c-4.02-4.3-6.03-10.37-6.03-18.22v-51.03c0-7.85,2.01-13.92,6.03-18.23Zm17.38,79.91c5.33,0,7.99-3.23,7.99-9.67v-52.99c0-6.45-2.66-9.67-7.99-9.67s-7.99,3.23-7.99,9.67v52.99c0,6.45,2.66,9.67,7.99,9.67Z"/>
      <path class="cls-1" d="M1069.04,168.86h-13.88V70.72h19.35l15.84,58.74v-58.74h13.74v98.14h-15.84l-19.21-71.08v71.08Z"/>
    </g>
    <g>
      <path class="cls-1" d="M531.28,261.62c0,6.36,2.66,9.53,7.99,9.53s7.99-3.18,7.99-9.53v-75.7h14.58v74.72c0,7.94-1.96,14.04-5.89,18.3-3.93,4.25-9.63,6.38-17.1,6.38s-13.18-2.13-17.1-6.38c-3.93-4.25-5.89-10.35-5.89-18.3v-74.72h15.42v75.7Z"/>
      <path class="cls-1" d="M586.09,284.05h-13.88v-98.14h19.35l15.84,58.74v-58.74h13.74v98.14h-15.84l-19.21-71.08v71.08Z"/>
      <path class="cls-1" d="M656.61,185.91c7.66,0,13.41,2.06,17.24,6.17,3.83,4.11,5.75,10.14,5.75,18.08v49.63c0,7.95-1.92,13.97-5.75,18.08-3.83,4.12-9.58,6.17-17.24,6.17h-24.39v-98.14h24.39Zm-8.97,84.12h8.69c2.52,0,4.46-.75,5.82-2.24,1.35-1.49,2.03-3.93,2.03-7.29v-51.03c0-3.36-.68-5.79-2.03-7.29-1.36-1.49-3.3-2.24-5.82-2.24h-8.69v70.1Z"/>
      <path class="cls-1" d="M726,227.27v14.02h-21.17v28.74h26.64v14.02h-42.06v-98.14h42.06v14.02h-26.64v27.34h21.17Z"/>
      <path class="cls-1" d="M772.12,279.56c-.19-1.4-.28-3.93-.28-7.57v-15.42c0-4.49-.8-7.69-2.38-9.6-1.59-1.91-4.16-2.87-7.71-2.87h-5.33v39.96h-15.42v-98.14h23.27c7.94,0,13.74,1.85,17.38,5.54,3.65,3.69,5.47,9.37,5.47,17.03v7.71c0,10.09-3.36,16.73-10.09,19.91,3.65,1.5,6.26,4,7.85,7.5,1.59,3.5,2.38,7.97,2.38,13.39v15.14c0,2.8,.09,5.07,.28,6.8,.19,1.73,.65,3.44,1.4,5.12h-15.7c-.56-1.59-.94-3.08-1.12-4.49Zm-15.7-49.49h6.03c3.08,0,5.4-.79,6.94-2.38,1.54-1.59,2.31-4.25,2.31-7.99v-9.67c0-3.55-.63-6.12-1.89-7.71-1.26-1.59-3.25-2.38-5.96-2.38h-7.43v30.14Z"/>
      <path class="cls-1" d="M801.14,191.17c3.83-4.25,9.48-6.38,16.96-6.38s13.13,2.13,16.96,6.38c3.83,4.25,5.75,10.35,5.75,18.3v3.08h-14.58v-4.07c0-3.36-.65-5.82-1.96-7.36-1.31-1.54-3.22-2.31-5.75-2.31s-4.44,.77-5.75,2.31c-1.31,1.54-1.96,4-1.96,7.36,0,4.11,1.1,7.71,3.3,10.79,2.19,3.08,5.49,6.59,9.88,10.51,3.65,3.36,6.59,6.33,8.83,8.9,2.24,2.57,4.16,5.68,5.75,9.32,1.59,3.65,2.38,7.8,2.38,12.48,0,7.94-1.96,14.04-5.89,18.3-3.93,4.25-9.63,6.38-17.1,6.38s-13.18-2.13-17.1-6.38c-3.93-4.25-5.89-10.35-5.89-18.3v-6.03h14.58v7.01c0,6.36,2.66,9.53,7.99,9.53s7.99-3.17,7.99-9.53c0-4.11-1.1-7.71-3.3-10.8-2.2-3.08-5.49-6.59-9.88-10.51-3.65-3.36-6.59-6.33-8.83-8.9-2.24-2.57-4.16-5.68-5.75-9.32-1.59-3.65-2.38-7.8-2.38-12.48,0-7.94,1.91-14.04,5.75-18.3Z"/>
      <path class="cls-1" d="M892.97,185.91v14.02h-16.12v84.12h-15.42v-84.12h-16.12v-14.02h47.67Z"/>
      <path class="cls-1" d="M928.72,284.05l-2.66-17.81h-18.93l-2.66,17.81h-14.16l15.7-98.14h22.57l15.7,98.14h-15.56Zm-4.77-31.12l-7.43-49.63-7.43,49.63h14.86Z"/>
      <path class="cls-1" d="M965.17,284.05h-13.88v-98.14h19.35l15.84,58.74v-58.74h13.74v98.14h-15.84l-19.21-71.08v71.08Z"/>
      <path class="cls-1" d="M1035.68,185.91c7.66,0,13.41,2.06,17.24,6.17,3.83,4.11,5.75,10.14,5.75,18.08v49.63c0,7.95-1.91,13.97-5.75,18.08-3.83,4.12-9.58,6.17-17.24,6.17h-24.39v-98.14h24.39Zm-8.97,84.12h8.69c2.52,0,4.46-.75,5.82-2.24,1.35-1.49,2.03-3.93,2.03-7.29v-51.03c0-3.36-.68-5.79-2.03-7.29-1.36-1.49-3.3-2.24-5.82-2.24h-8.69v70.1Z"/>
      <path class="cls-1" d="M1083.91,185.91v98.14h-15.42v-98.14h15.42Z"/>
      <path class="cls-1" d="M1108.86,284.05h-13.88v-98.14h19.35l15.84,58.74v-58.74h13.74v98.14h-15.84l-19.21-71.08v71.08Z"/>
      <path class="cls-1" d="M1199.7,229.38v31.12c0,7.94-1.96,14.04-5.89,18.3-3.93,4.25-9.63,6.38-17.11,6.38s-13.18-2.13-17.1-6.38c-3.93-4.25-5.89-10.35-5.89-18.3v-51.03c0-7.94,1.96-14.04,5.89-18.3,3.93-4.25,9.63-6.38,17.1-6.38s13.18,2.13,17.11,6.38c3.93,4.25,5.89,10.35,5.89,18.3v9.53h-14.58v-10.51c0-6.45-2.66-9.67-7.99-9.67s-7.99,3.23-7.99,9.67v52.99c0,6.36,2.66,9.53,7.99,9.53s7.99-3.17,7.99-9.53v-18.09h-7.01v-14.02h21.59Z"/>
    </g>
    <g>
      <path class="cls-1" d="M563.52,301.28v14.02h-16.12v84.12h-15.42v-84.12h-16.12v-14.02h47.67Z"/>
      <path class="cls-1" d="M570.25,399.41v-98.14h15.42v42.06h17.52v-42.06h15.7v98.14h-15.7v-42.06h-17.52v42.06h-15.42Z"/>
      <path class="cls-1" d="M661.23,394.93c-.19-1.4-.28-3.93-.28-7.57v-15.42c0-4.49-.8-7.69-2.38-9.6-1.59-1.91-4.16-2.87-7.71-2.87h-5.33v39.96h-15.42v-98.14h23.27c7.94,0,13.74,1.85,17.38,5.54,3.65,3.69,5.47,9.37,5.47,17.03v7.71c0,10.09-3.36,16.73-10.09,19.91,3.65,1.5,6.26,4,7.85,7.5,1.59,3.5,2.38,7.97,2.38,13.39v15.14c0,2.8,.09,5.07,.28,6.8,.19,1.73,.65,3.44,1.4,5.12h-15.7c-.56-1.59-.94-3.08-1.12-4.49Zm-15.7-49.49h6.03c3.08,0,5.4-.79,6.94-2.38,1.54-1.59,2.31-4.25,2.31-7.99v-9.67c0-3.55-.63-6.12-1.89-7.71-1.26-1.59-3.25-2.38-5.96-2.38h-7.43v30.14Z"/>
      <path class="cls-1" d="M691.23,306.61c4.02-4.3,9.81-6.45,17.38-6.45s13.36,2.15,17.38,6.45c4.02,4.3,6.03,10.37,6.03,18.23v51.03c0,7.85-2.01,13.93-6.03,18.22-4.02,4.3-9.81,6.45-17.38,6.45s-13.37-2.15-17.38-6.45c-4.02-4.3-6.03-10.37-6.03-18.22v-51.03c0-7.85,2.01-13.92,6.03-18.23Zm17.38,79.91c5.33,0,7.99-3.23,7.99-9.67v-52.99c0-6.45-2.66-9.67-7.99-9.67s-7.99,3.23-7.99,9.67v52.99c0,6.45,2.66,9.67,7.99,9.67Z"/>
      <path class="cls-1" d="M756.7,376.98c0,6.36,2.66,9.53,7.99,9.53s7.99-3.18,7.99-9.53v-75.7h14.58v74.72c0,7.94-1.96,14.04-5.89,18.3-3.93,4.25-9.63,6.38-17.1,6.38s-13.18-2.13-17.1-6.38c-3.93-4.25-5.89-10.35-5.89-18.3v-74.72h15.42v75.7Z"/>
      <path class="cls-1" d="M842.5,344.74v31.12c0,7.94-1.96,14.04-5.89,18.3-3.93,4.25-9.63,6.38-17.1,6.38s-13.18-2.13-17.1-6.38c-3.93-4.25-5.89-10.35-5.89-18.3v-51.03c0-7.94,1.96-14.04,5.89-18.3,3.93-4.25,9.63-6.38,17.1-6.38s13.18,2.13,17.1,6.38c3.93,4.25,5.89,10.35,5.89,18.3v9.53h-14.58v-10.51c0-6.45-2.66-9.67-7.99-9.67s-7.99,3.23-7.99,9.67v52.99c0,6.36,2.66,9.53,7.99,9.53s7.99-3.17,7.99-9.53v-18.09h-7.01v-14.02h21.59Z"/>
      <path class="cls-1" d="M852.45,399.41v-98.14h15.42v42.06h17.52v-42.06h15.7v98.14h-15.7v-42.06h-17.52v42.06h-15.42Z"/>
    </g>
    <g>
      <path class="cls-2" d="M559.18,416.64h21.45v98.14h-14.58v-70.38l-10.65,70.38h-14.58l-11.5-69.4v69.4h-13.46v-98.14h21.45l11.36,69.68,10.51-69.68Z"/>
      <path class="cls-2" d="M628.43,458v14.02h-21.17v28.74h26.64v14.02h-42.06v-98.14h42.06v14.02h-26.64v27.34h21.17Z"/>
      <path class="cls-2" d="M667.82,416.64c7.66,0,13.41,2.06,17.24,6.17,3.83,4.11,5.75,10.14,5.75,18.08v49.63c0,7.95-1.92,13.97-5.75,18.08-3.83,4.12-9.58,6.17-17.24,6.17h-24.39v-98.14h24.39Zm-8.97,84.12h8.69c2.52,0,4.46-.75,5.82-2.24,1.35-1.49,2.03-3.93,2.03-7.29v-51.03c0-3.36-.68-5.79-2.03-7.29-1.36-1.49-3.3-2.24-5.82-2.24h-8.69v70.1Z"/>
      <path class="cls-2" d="M716.05,416.64v98.14h-15.42v-98.14h15.42Z"/>
      <path class="cls-2" d="M771.98,491.23c0,7.94-1.96,14.04-5.89,18.3-3.93,4.25-9.63,6.38-17.1,6.38s-13.18-2.13-17.1-6.38c-3.93-4.25-5.89-10.35-5.89-18.3v-51.03c0-7.94,1.96-14.04,5.89-18.3,3.93-4.25,9.63-6.38,17.1-6.38s13.18,2.13,17.1,6.38c3.93,4.25,5.89,10.35,5.89,18.3v9.53h-14.58v-10.51c0-6.45-2.66-9.67-7.99-9.67s-7.99,3.23-7.99,9.67v52.99c0,6.36,2.66,9.53,7.99,9.53s7.99-3.17,7.99-9.53v-14.02h14.58v13.04Z"/>
      <path class="cls-2" d="M815.72,514.78l-2.66-17.81h-18.93l-2.66,17.81h-14.16l15.7-98.14h22.57l15.7,98.14h-15.56Zm-4.77-31.12l-7.43-49.63-7.43,49.63h14.86Z"/>
      <path class="cls-2" d="M853.85,416.64v84.12h25.37v14.02h-40.8v-98.14h15.42Z"/>
      <path class="cls-2" d="M932.08,416.64c7.66,0,13.41,2.06,17.24,6.17,3.83,4.11,5.75,10.14,5.75,18.08v49.63c0,7.95-1.92,13.97-5.75,18.08-3.83,4.12-9.58,6.17-17.24,6.17h-24.39v-98.14h24.39Zm-8.97,84.12h8.69c2.52,0,4.46-.75,5.82-2.24,1.35-1.49,2.03-3.93,2.03-7.29v-51.03c0-3.36-.68-5.79-2.03-7.29-1.36-1.49-3.3-2.24-5.82-2.24h-8.69v70.1Z"/>
      <path class="cls-2" d="M999.09,514.78l-2.66-17.81h-18.93l-2.66,17.81h-14.16l15.7-98.14h22.57l15.7,98.14h-15.56Zm-4.77-31.12l-7.43-49.63-7.43,49.63h14.86Z"/>
      <path class="cls-2" d="M1059.65,416.64v14.02h-16.12v84.12h-15.42v-84.12h-16.12v-14.02h47.66Z"/>
      <path class="cls-2" d="M1095.4,514.78l-2.66-17.81h-18.93l-2.66,17.81h-14.16l15.7-98.14h22.57l15.7,98.14h-15.56Zm-4.77-31.12l-7.43-49.63-7.43,49.63h14.86Z"/>
    </g>
  </g>
  <g>
    <path class="cls-1" d="M5.19,270.16c-2.04,2.21-3.76,4.71-5.19,7.48V38.99H376.43v17.74H17.75v205.07c-4.93,1.85-9.13,4.64-12.56,8.36Z"/>
    <path class="cls-1" d="M476.92,69.04v446.86H0v-116.16c1.43,2.76,3.15,5.26,5.19,7.47,3.43,3.72,7.62,6.51,12.56,8.36v82.58H459.16V69.04h17.75Z"/>
  </g>
  <polygon class="cls-2" points="476.92 31.47 476.92 64.25 445.45 64.25 445.45 95.72 412.67 95.72 412.67 64.25 381.2 64.25 381.2 31.47 412.67 31.47 412.67 0 445.45 0 445.45 31.47 476.92 31.47"/>
  <g>
    <path class="cls-1" d="M68.47,376.68c0,11.83-2.92,20.91-8.77,27.24-5.84,6.33-14.34,9.5-25.47,9.5s-19.62-3.16-25.47-9.5c-5.84-6.33-8.77-15.41-8.77-27.24v-75.98c0-11.83,2.92-20.91,8.77-27.24,5.84-6.33,14.33-9.5,25.47-9.5s19.62,3.17,25.47,9.5c5.84,6.33,8.77,15.41,8.77,27.24v14.19h-21.71v-15.66c0-9.6-3.97-14.4-11.9-14.4s-11.9,4.8-11.9,14.4v78.91c0,9.47,3.97,14.19,11.9,14.19s11.9-4.73,11.9-14.19v-20.88h21.71v19.41Z"/>
    <path class="cls-1" d="M104.37,378.35c0,9.47,3.97,14.19,11.9,14.19s11.9-4.73,11.9-14.19v-112.72h21.71v111.26c0,11.83-2.92,20.91-8.77,27.24-5.84,6.33-14.33,9.5-25.47,9.5s-19.62-3.16-25.47-9.5c-5.84-6.33-8.77-15.41-8.77-27.24v-111.26h22.96v112.72Z"/>
    <path class="cls-1" d="M229.83,265.63v20.87h-24.01v125.25h-22.96v-125.25h-24.01v-20.87h70.98Z"/>
    <path class="cls-1" d="M332.29,265.63h31.94v146.12h-21.71v-104.79l-15.87,104.79h-21.71l-17.12-103.33v103.33h-20.04v-146.12h31.94l16.91,103.75,15.66-103.75Z"/>
    <path class="cls-1" d="M417.25,265.63c11.41,0,19.97,3.06,25.68,9.18,5.7,6.13,8.56,15.1,8.56,26.93v73.9c0,11.83-2.86,20.81-8.56,26.93-5.71,6.13-14.27,9.19-25.68,9.19h-36.32v-146.12h36.32Zm-13.36,125.25h12.94c3.76,0,6.64-1.11,8.66-3.34,2.02-2.22,3.03-5.84,3.03-10.85v-75.98c0-5.01-1.01-8.63-3.03-10.85-2.02-2.22-4.91-3.34-8.66-3.34h-12.94v104.37Z"/>
  </g>
  <path class="cls-2" d="M449.09,240.74h0c0,2.98-2.4,5.38-5.37,5.38h-120.75l-18.07,23.72-27.17-57.65-29.86,106.39-40.77-141.31-26.77,79.51-22.22-35.35-17.09,16.38c-.77,.74-1.79,1.15-2.87,1.15H31.72c-2.97,0-5.37-2.4-5.37-5.37h0c0-2.97,2.4-5.37,5.37-5.37h103.77l24.68-23.66,17.19,27.33,30.52-90.62,39.83,138.06,27.44-97.76,31.92,67.71,9.52-12.5c.66-.87,1.69-1.39,2.79-1.39h124.33c2.97,0,5.37,2.4,5.37,5.37Z"/>
</svg>